<svg width="104" height="37" viewBox="0 0 104 37" fill="none" xmlns="http://www.w3.org/2000/svg">
<g clip-path="url(#clip0_3067_964)">
<path d="M9.09915 17.8419C9.1715 17.6262 9.24624 17.4105 9.31542 17.1941C9.41004 16.8986 9.49829 16.6022 9.59212 16.3059C9.72331 15.889 9.85689 15.472 9.98967 15.0559C10.0787 14.7764 10.1686 14.4968 10.2584 14.2181C10.3562 13.9145 10.4548 13.611 10.5526 13.3075C10.6655 12.9561 10.7792 12.6046 10.8905 12.2524C11.0034 11.8962 11.1108 11.5391 11.2245 11.1829C11.3334 10.8435 11.4487 10.5056 11.5576 10.1661C11.653 9.87061 11.7437 9.57348 11.8375 9.27716C11.9496 8.92492 12.0649 8.57428 12.1762 8.22205C12.2891 7.86582 12.3957 7.50799 12.5094 7.15256C12.6175 6.8131 12.7328 6.47524 12.8425 6.13658C12.9371 5.84505 13.0278 5.55192 13.1208 5.26038C13.2345 4.90415 13.3498 4.54872 13.4619 4.19249C13.574 3.83626 13.6814 3.47843 13.7951 3.123C13.8865 2.83626 13.9867 2.55192 14.0789 2.26518C14.1735 1.97364 14.2626 1.68051 14.3548 1.38818C14.4057 1.22604 14.4566 1.0639 14.5138 0.904154C14.5242 0.8754 14.5631 0.849042 14.5949 0.83786C14.6299 0.825879 14.6713 0.832269 14.7094 0.832269C15.9562 0.832269 17.2029 0.832269 18.4496 0.830671C18.5665 0.830671 18.6412 0.841853 18.681 0.984026C18.7804 1.34425 18.906 1.69728 19.0213 2.05272C19.1318 2.39217 19.2447 2.73083 19.3544 3.07029C19.4499 3.36502 19.5429 3.66134 19.6375 3.95607C19.7297 4.24281 19.822 4.53035 19.915 4.81709C20.0104 5.11182 20.1058 5.40735 20.2012 5.70208C20.3125 6.04553 20.4239 6.38898 20.5344 6.73323C20.6465 7.08067 20.7578 7.42891 20.8691 7.77636C20.9963 8.17332 21.122 8.57109 21.25 8.96725C21.3621 9.3147 21.4758 9.66134 21.5887 10.008C21.7215 10.4161 21.8566 10.8235 21.9878 11.2316C22.1143 11.6238 22.2351 12.0184 22.3615 12.4105C22.4728 12.758 22.5897 13.1038 22.701 13.4513C22.814 13.8035 22.9205 14.1581 23.0334 14.5104C23.1392 14.8419 23.2489 15.1725 23.357 15.504C23.4532 15.7987 23.5494 16.0935 23.6456 16.389C23.7569 16.7324 23.8667 17.0759 23.9772 17.4193C24.0217 17.5567 24.0639 17.6957 24.1108 17.8323C24.1275 17.8826 24.1545 17.9289 24.1768 17.9776C24.1887 17.9776 24.2006 17.9776 24.2125 17.9776C24.2515 17.8466 24.2929 17.7157 24.3286 17.5839C24.3938 17.3466 24.4574 17.1086 24.5195 16.8706C24.5783 16.6446 24.6332 16.4169 24.692 16.1901C24.7477 15.976 24.8065 15.7636 24.8629 15.5503C24.9258 15.3163 24.987 15.0823 25.0498 14.8482C25.1285 14.5567 25.2096 14.2668 25.2867 13.9752C25.3647 13.6789 25.4378 13.3818 25.5141 13.0855C25.5682 12.8754 25.6255 12.6661 25.6819 12.4577C25.7439 12.2276 25.8075 11.9984 25.8703 11.7692C25.9347 11.5312 25.9991 11.2939 26.0612 11.0551C26.1208 10.8251 26.1741 10.5935 26.2345 10.3634C26.2933 10.1422 26.3585 9.92252 26.419 9.70208C26.4778 9.48483 26.5335 9.26677 26.5907 9.04872C26.6495 8.82268 26.7068 8.59665 26.7664 8.37061C26.8269 8.14058 26.8897 7.91134 26.9517 7.68131C27.0312 7.38578 27.1123 7.09105 27.1902 6.79553C27.2673 6.5032 27.3405 6.21086 27.416 5.91853C27.4717 5.70447 27.5281 5.49121 27.5862 5.27796C27.6482 5.04792 27.7118 4.81869 27.7738 4.58946C27.8549 4.28994 27.936 3.99121 28.0155 3.69089C28.0744 3.46885 28.1284 3.24601 28.1873 3.02396C28.2644 2.73243 28.3455 2.44169 28.4234 2.15096C28.4823 1.92971 28.5379 1.70687 28.5968 1.48562C28.6477 1.29313 28.6977 1.09984 28.7558 0.908946C28.7653 0.878594 28.8114 0.850639 28.8464 0.839457C28.8854 0.827476 28.9315 0.834665 28.9744 0.834665C30.1782 0.834665 31.382 0.834665 32.5858 0.834665C32.6327 0.834665 32.6828 0.828275 32.7258 0.841853C32.7528 0.850639 32.7917 0.896965 32.787 0.916134C32.7377 1.11342 32.6796 1.30911 32.6248 1.50479C32.5461 1.78275 32.4673 2.0607 32.3886 2.33866C32.3099 2.61661 32.2304 2.89377 32.1541 3.17173C32.0762 3.45447 32.0014 3.73802 31.9243 4.02077C31.8678 4.22524 31.8082 4.42891 31.7517 4.63339C31.6714 4.92013 31.5935 5.20687 31.5132 5.49361C31.456 5.69808 31.3947 5.90176 31.3375 6.10623C31.258 6.38898 31.1817 6.67173 31.1029 6.95447C31.0274 7.22444 30.9511 7.49361 30.8755 7.76358C30.7976 8.04233 30.7189 8.32029 30.6418 8.59904C30.5662 8.86901 30.4931 9.13898 30.4176 9.40895C30.3388 9.69169 30.2577 9.97284 30.179 10.2556C30.1051 10.5216 30.0327 10.7883 29.9588 11.0543C29.8777 11.345 29.7966 11.6358 29.7147 11.9257C29.6384 12.1957 29.5588 12.4641 29.4825 12.734C29.4054 13.008 29.3306 13.2827 29.2543 13.5575C29.1748 13.8443 29.0937 14.1302 29.0134 14.4169C28.9387 14.6869 28.8655 14.9577 28.79 15.2276C28.6946 15.5671 28.5968 15.9058 28.5014 16.2452C28.425 16.5152 28.3519 16.7867 28.2763 17.0567C28.1984 17.3347 28.1189 17.6126 28.0418 17.8906C27.9806 18.1118 27.9241 18.3347 27.8629 18.5551C27.8048 18.7636 27.7412 18.9704 27.6832 19.1789C27.6053 19.4569 27.5297 19.7364 27.4526 20.0144C27.3938 20.2268 27.3333 20.4393 27.2745 20.6518C27.1958 20.9345 27.1195 21.2173 27.0399 21.4992C26.9811 21.7077 26.9183 21.9145 26.8595 22.123C26.7815 22.401 26.706 22.6805 26.6297 22.9593C26.5724 23.1677 26.5152 23.377 26.4563 23.5847C26.4126 23.7404 26.3609 23.893 26.3243 24.0503C26.3045 24.1382 26.2607 24.1765 26.1765 24.1773C26.0866 24.1773 25.9968 24.1789 25.9069 24.1789C24.7802 24.1789 23.6536 24.1789 22.5269 24.1789C22.2089 24.1789 22.216 24.1765 22.1222 23.869C21.9934 23.4465 21.8519 23.028 21.7191 22.6062C21.5752 22.1486 21.4376 21.6877 21.2913 21.2308C21.1466 20.778 20.9908 20.3283 20.8461 19.8746C20.699 19.4137 20.5622 18.9489 20.4151 18.488C20.2704 18.0343 20.1138 17.5855 19.9699 17.1318C19.7727 16.5128 19.5826 15.8914 19.387 15.2716C19.201 14.6845 19.0125 14.0982 18.8233 13.512C18.6587 13.0024 18.4894 12.4952 18.3248 11.9856C18.1705 11.5088 18.0179 11.0311 17.8676 10.5527C17.7054 10.0383 17.5495 9.52157 17.3858 9.00799C17.2569 8.60304 17.1178 8.20208 16.9866 7.79713C16.8578 7.39697 16.7338 6.99521 16.6073 6.59425C16.605 6.58706 16.5954 6.58307 16.5628 6.55192C16.5247 6.63578 16.4825 6.70767 16.4579 6.78514C16.3044 7.25719 16.1525 7.73083 16.0039 8.20447C15.8576 8.67013 15.7184 9.13898 15.5697 9.60383C15.4274 10.0495 15.2755 10.4912 15.1324 10.9361C15.0195 11.2875 14.9154 11.6422 14.8032 11.9936C14.6935 12.3379 14.5766 12.6805 14.4669 13.0248C14.3548 13.377 14.2475 13.7308 14.1362 14.0831C14.0296 14.4193 13.9199 14.754 13.8117 15.0895C13.7155 15.389 13.6193 15.6877 13.5231 15.9872C13.3911 16.3954 13.2576 16.8035 13.128 17.2125C13.0166 17.5647 12.9101 17.9185 12.7996 18.2716C12.6946 18.603 12.5857 18.9337 12.4799 19.2652C12.3623 19.6334 12.2478 20.0024 12.1293 20.3698C11.9997 20.77 11.8645 21.1685 11.7357 21.5687C11.6252 21.9129 11.521 22.2588 11.4121 22.6038C11.2865 23.0008 11.1593 23.397 11.0328 23.7939C11.0082 23.8706 10.9692 23.9449 10.9565 24.0232C10.9358 24.1502 10.8627 24.1797 10.749 24.1789C10.0938 24.1765 9.43787 24.1781 8.7827 24.1781C8.2301 24.1781 7.6775 24.1781 7.1249 24.1781C6.86172 24.1781 6.86967 24.1757 6.80209 23.9257C6.69157 23.5112 6.56753 23.1006 6.45303 22.6877C6.34251 22.2907 6.23994 21.8922 6.12783 21.496C6.01731 21.1038 5.89646 20.7141 5.78514 20.3211C5.69132 19.9904 5.60624 19.6566 5.51242 19.3259C5.4353 19.0519 5.34942 18.7812 5.27309 18.5072C5.17927 18.1717 5.09181 17.8347 4.99799 17.4984C4.92245 17.2284 4.84056 16.9601 4.76423 16.6909C4.6879 16.4209 4.61475 16.1502 4.53842 15.881C4.46129 15.6078 4.38019 15.3347 4.30227 15.0615C4.22594 14.7915 4.15358 14.52 4.07646 14.25C3.99615 13.9681 3.91187 13.6877 3.83236 13.4058C3.75603 13.1318 3.68686 12.8554 3.60973 12.5807C3.53261 12.3075 3.44594 12.0367 3.36881 11.7628C3.29169 11.4888 3.22331 11.2117 3.14539 10.9377C3.05157 10.607 2.94979 10.278 2.85597 9.94728C2.77805 9.67332 2.70967 9.39697 2.63254 9.123C2.55701 8.85383 2.47511 8.58546 2.39878 8.31629C2.32166 8.04633 2.24771 7.77556 2.17297 7.50559C2.09744 7.23562 2.02349 6.96486 1.94716 6.69489C1.86845 6.41693 1.78894 6.13978 1.70942 5.86182C1.63071 5.58866 1.5512 5.3155 1.47328 5.04233C1.39695 4.77236 1.3238 4.5008 1.24747 4.23083C1.16716 3.94888 1.08288 3.66853 1.00416 3.38658C0.927835 3.11262 0.85866 2.83626 0.781535 2.5623C0.687712 2.23163 0.588324 1.90256 0.492911 1.57268C0.434073 1.3754 0.37762 1.17971 0.325938 0.98163C0.2997 0.880192 0.34025 0.829074 0.451565 0.830671C0.738599 0.833866 1.02563 0.830671 1.31267 0.830671C2.26839 0.830671 3.22331 0.830671 4.17903 0.830671C4.41597 0.830671 4.41517 0.839457 4.47083 1.07109C4.54319 1.3722 4.63144 1.67013 4.71175 1.96965C4.78728 2.2524 4.85964 2.53674 4.93676 2.81949C5.01309 3.09824 5.09579 3.3746 5.17291 3.65256C5.24924 3.92732 5.3208 4.20288 5.39554 4.47764C5.47426 4.76837 5.55536 5.05911 5.63407 5.35064C5.7112 5.63738 5.78435 5.92492 5.86227 6.21166C5.91872 6.42093 5.98074 6.62859 6.03878 6.83706C6.09921 7.05431 6.15805 7.27157 6.21848 7.48882C6.28209 7.71805 6.34569 7.94728 6.40851 8.17652C6.46655 8.38978 6.52141 8.60383 6.57946 8.81709C6.65738 9.10383 6.73689 9.38978 6.8156 9.67652C6.87364 9.88978 6.93169 10.1022 6.98973 10.3155C7.06765 10.6022 7.14557 10.889 7.22349 11.1765C7.28392 11.3986 7.34196 11.6206 7.40319 11.8419C7.46361 12.0631 7.52643 12.2835 7.58686 12.5048C7.64569 12.7173 7.70294 12.9305 7.76178 13.143C7.84288 13.4377 7.92557 13.7316 8.00508 14.0272C8.08062 14.3059 8.15059 14.5871 8.22692 14.8658C8.30404 15.1486 8.38673 15.4297 8.46386 15.7125C8.52429 15.9337 8.57835 16.1566 8.63799 16.3778C8.69603 16.5911 8.75884 16.8027 8.81689 17.016C8.87811 17.2372 8.93536 17.4593 8.99658 17.6805C9.01169 17.7356 9.03634 17.7891 9.05621 17.8427C9.07053 17.8427 9.08563 17.8427 9.09994 17.8419H9.09915Z" fill="#1A073C"/>
<path d="M57.665 24.1765C57.7557 23.9353 57.8328 23.7252 57.9139 23.516C58.1151 22.9968 58.317 22.4776 58.5198 21.9585C58.7376 21.4001 58.9579 20.8434 59.1742 20.2851C59.4055 19.6861 59.6305 19.0847 59.8619 18.4864C60.0567 17.9832 60.2579 17.4824 60.4535 16.98C60.6499 16.4768 60.8415 15.9712 61.0363 15.468C61.2542 14.9057 61.476 14.3442 61.6931 13.7819C61.9912 13.0088 62.2862 12.2348 62.5852 11.4624C62.7983 10.9113 63.0185 10.3626 63.2324 9.81149C63.4972 9.12938 63.7564 8.44567 64.0203 7.76356C64.2517 7.16532 64.4894 6.56948 64.7208 5.97123C64.9721 5.32107 65.2162 4.66852 65.4674 4.01836C65.7147 3.38018 65.9691 2.74519 66.218 2.10781C66.3635 1.73561 66.5035 1.36101 66.6434 0.986409C66.6816 0.883374 66.7356 0.830658 66.8573 0.830658C68.2797 0.834652 69.7022 0.833853 71.1246 0.832255C71.2248 0.832255 71.2797 0.85462 71.321 0.964843C71.6383 1.8043 71.965 2.63976 72.2902 3.47523C72.4874 3.98162 72.6902 4.48641 72.8874 4.9936C73.1641 5.70206 73.4384 6.41133 73.7135 7.12059C74.0212 7.91372 74.3289 8.70606 74.635 9.49999C74.8839 10.1462 75.1272 10.7947 75.3776 11.4409C75.5724 11.9441 75.7768 12.4441 75.9708 12.9473C76.2546 13.6805 76.5313 14.4161 76.8152 15.1493C77.0792 15.8315 77.3503 16.5104 77.6143 17.1917C77.8647 17.8378 78.1072 18.4864 78.3577 19.1326C78.5525 19.6358 78.7553 20.1358 78.9509 20.639C79.1806 21.2292 79.4057 21.8211 79.6339 22.4121C79.8334 22.9273 80.0386 23.4409 80.235 23.9577C80.3248 24.1933 80.3248 24.1773 80.0847 24.1781C78.8038 24.1797 77.5228 24.1781 76.2419 24.1805C76.1091 24.1805 76.0304 24.1557 75.9779 24.0072C75.7513 23.3666 75.5088 22.7316 75.2687 22.0958C75.0198 21.4361 74.7646 20.7779 74.5157 20.1174C74.3042 19.5567 74.1007 18.9936 73.886 18.4345C73.8685 18.3898 73.8002 18.3578 73.7485 18.3362C73.7119 18.3211 73.6642 18.3331 73.6213 18.3331C70.4893 18.3331 67.3574 18.3331 64.2263 18.3331C63.8796 18.3331 63.975 18.3075 63.855 18.6142C63.6832 19.0535 63.5282 19.4992 63.3652 19.9417C63.2014 20.3882 63.0368 20.8355 62.8722 21.2819C62.714 21.7124 62.555 22.143 62.3959 22.5735C62.2305 23.02 62.0644 23.4656 61.899 23.9121C61.8783 23.968 61.8735 24.0359 61.8378 24.0783C61.7988 24.1238 61.7344 24.1701 61.6779 24.1741C61.4943 24.1861 61.3098 24.1789 61.1254 24.1789C60.0416 24.1789 58.9579 24.1789 57.8734 24.1789H57.6635L57.665 24.1765ZM68.9317 5.10622C68.8888 5.15893 68.857 5.18289 68.845 5.21404C68.7051 5.58385 68.5668 5.95366 68.43 6.32427C68.2487 6.81468 68.0706 7.3059 67.8893 7.79631C67.7287 8.23082 67.5641 8.66372 67.4035 9.09743C67.2397 9.53912 67.0799 9.98321 66.9161 10.4249C66.7547 10.8594 66.5885 11.2915 66.4279 11.7252C66.2466 12.2156 66.0701 12.7077 65.8896 13.1981C65.7227 13.6525 65.5565 14.1078 65.3824 14.5599C65.341 14.6669 65.3863 14.6805 65.4698 14.6805C65.5 14.6805 65.5294 14.6805 65.5597 14.6805C67.7915 14.6805 70.0226 14.6805 72.2545 14.6805C72.2887 14.6805 72.3228 14.6789 72.357 14.6805C72.4524 14.6837 72.4668 14.6326 72.4381 14.5567C72.4016 14.4569 72.3602 14.3586 72.3228 14.2596C72.1781 13.8738 72.0326 13.488 71.8903 13.1006C71.7114 12.6142 71.5381 12.1262 71.3576 11.6406C71.162 11.115 70.9584 10.5926 70.7636 10.0663C70.5641 9.52874 70.374 8.98721 70.1753 8.44967C69.9805 7.92411 69.7761 7.40174 69.5805 6.87539C69.3658 6.29791 69.1575 5.71884 68.9333 5.10542L68.9317 5.10622Z" fill="#1A073C"/>
<path d="M52.7235 9.1222C52.4834 8.1845 52.1137 7.32507 51.5388 6.56469C50.8948 5.71325 50.0965 5.04951 49.105 4.64216C48.7337 4.48961 48.3544 4.34824 47.9672 4.24839C47.6157 4.15814 47.25 4.11022 46.8882 4.08146C46.4207 4.04392 45.9492 4.01996 45.4809 4.03514C45.1231 4.04632 44.7661 4.12539 44.4099 4.17811C43.9201 4.25079 43.4557 4.41054 42.9993 4.59424C42.3084 4.873 41.6787 5.25399 41.1014 5.72763C40.3564 6.33865 39.7656 7.07427 39.3037 7.91693C39.0564 8.369 38.8505 8.84105 38.7089 9.33785C38.6024 9.70926 38.4927 10.0815 38.4156 10.4593C38.3519 10.7716 38.3448 11.095 38.2955 11.4113C38.2001 12.0232 38.2557 12.6382 38.2549 13.2516C38.2549 13.5016 38.3106 13.7516 38.3432 14.0008C38.3599 14.1318 38.375 14.2636 38.402 14.3922C38.4641 14.6877 38.5149 14.9872 38.6024 15.2748C38.7256 15.6765 38.8584 16.0775 39.023 16.4641C39.3061 17.1302 39.6917 17.7364 40.1592 18.2907C40.7667 19.0104 41.4878 19.5855 42.3164 20.0248C42.7433 20.2516 43.1878 20.4369 43.6529 20.5735C44.0433 20.6885 44.4377 20.7755 44.8416 20.8355C45.3505 20.9113 45.8593 20.9545 46.3698 20.9201C46.7411 20.8954 47.1101 20.8275 47.479 20.7779C48.0077 20.7069 48.511 20.5407 48.9976 20.3299C49.9653 19.9105 50.793 19.2971 51.4712 18.484C51.9133 17.9545 52.2782 17.3754 52.5534 16.742C52.6885 16.4313 52.8054 16.1118 52.9366 15.7819C53.1505 15.8514 53.3667 15.9225 53.583 15.9928C53.9337 16.107 54.2851 16.2188 54.6349 16.3347C54.976 16.4481 55.3148 16.5663 55.6551 16.6797C55.8841 16.7564 56.1138 16.8299 56.3452 16.9002C56.4844 16.9425 56.4955 16.9617 56.4589 17.0998C56.1759 18.1637 55.7091 19.1438 55.1025 20.0559C54.5936 20.8227 53.9885 21.5064 53.292 22.1102C52.6511 22.6661 51.953 23.1334 51.1985 23.5128C50.6602 23.7835 50.1044 24.0176 49.5208 24.1741C49.1408 24.2756 48.7631 24.3866 48.379 24.468C48.0936 24.5287 47.7978 24.5407 47.5092 24.5863C46.8015 24.6981 46.0883 24.6933 45.3759 24.6781C45.0921 24.6717 44.8098 24.6238 44.5267 24.5918C44.3661 24.5743 44.2055 24.5567 44.0465 24.5295C43.7881 24.4856 43.5289 24.4417 43.2729 24.385C42.9755 24.3195 42.6781 24.2508 42.3871 24.1637C42.0834 24.0735 41.7797 23.9768 41.4894 23.8514C41.0235 23.6502 40.56 23.4401 40.1115 23.2021C39.3912 22.8203 38.7328 22.3434 38.1214 21.8011C37.463 21.2164 36.8802 20.5663 36.3769 19.8418C35.9849 19.2771 35.6327 18.6877 35.3615 18.0559C35.1556 17.5767 34.9823 17.0823 34.8169 16.5871C34.6976 16.2292 34.6046 15.8618 34.5187 15.4944C34.4623 15.2548 34.4376 15.0072 34.4026 14.7628C34.3526 14.4129 34.2945 14.0631 34.2603 13.7117C34.2373 13.4768 34.246 13.2388 34.246 13.0024C34.2468 12.4688 34.2436 11.9353 34.2587 11.4018C34.2659 11.1685 34.3144 10.9369 34.3446 10.7045C34.3629 10.5695 34.3796 10.4337 34.4026 10.2995C34.4551 9.98482 34.4941 9.66613 34.5704 9.35782C34.6666 8.96645 34.7915 8.58146 34.9107 8.19648C35.0841 7.63817 35.3154 7.10463 35.581 6.58466C35.9141 5.9345 36.3053 5.32347 36.753 4.7452C37.1967 4.17092 37.6968 3.65175 38.2367 3.17332C38.7535 2.71565 39.314 2.31549 39.9104 1.96405C40.424 1.66133 40.9519 1.38897 41.5069 1.17491C41.8854 1.02875 42.2726 0.903347 42.6614 0.785935C42.9811 0.68929 43.3055 0.605424 43.6323 0.537532C43.9018 0.481622 44.1785 0.465647 44.4504 0.42012C45.1795 0.296318 45.9142 0.31389 46.6473 0.328267C46.9391 0.333858 47.2301 0.383379 47.5219 0.416127C47.665 0.432101 47.8097 0.446478 47.9513 0.473635C48.4085 0.559896 48.872 0.624593 49.3204 0.7452C50.3954 1.03434 51.4052 1.47843 52.3387 2.09424C53.0885 2.58865 53.7508 3.1845 54.3352 3.86181C54.9784 4.60782 55.5016 5.43689 55.8801 6.34983C56.0502 6.76117 56.1878 7.1853 56.3397 7.60462C56.3611 7.66453 56.3858 7.72603 56.3882 7.78753C56.3889 7.82667 56.3595 7.89137 56.3277 7.90335C56.1393 7.97763 55.9461 8.04153 55.7537 8.10622C55.4253 8.21804 55.0961 8.32747 54.7677 8.43849C54.4878 8.53354 54.2096 8.63018 53.9297 8.72443C53.5965 8.83625 53.2634 8.94728 52.9302 9.0583C52.8666 9.07986 52.8014 9.09824 52.7251 9.1214L52.7235 9.1222Z" fill="#1A073C"/>
<path d="M99.7279 8.82424C99.6142 8.54229 99.5061 8.27472 99.3995 8.00715C99.227 7.57264 98.9964 7.16929 98.7189 6.79708C98.4851 6.48318 98.2387 6.17408 97.962 5.89932C97.3052 5.24596 96.5395 4.75076 95.6657 4.44005C95.3087 4.31306 94.9374 4.2236 94.57 4.12695C94.1319 4.01194 93.6851 3.96401 93.2311 3.9704C93.1007 3.972 92.9687 3.92727 92.8391 3.93526C92.5298 3.95443 92.2213 3.98398 91.9144 4.02632C91.5916 4.07024 91.2664 4.11338 90.9507 4.19245C90.2995 4.35619 89.6793 4.60539 89.0917 4.93606C88.4596 5.29229 87.8903 5.72839 87.3902 6.25395C86.7883 6.88654 86.3017 7.6006 85.963 8.40731C85.7913 8.81705 85.6442 9.23957 85.5106 9.66449C85.4295 9.92248 85.3897 10.194 85.3404 10.4616C85.2879 10.75 85.2458 11.0407 85.1997 11.3306C85.1965 11.3522 85.1933 11.373 85.1925 11.3945C85.1758 11.8658 85.1448 12.3378 85.1488 12.8091C85.1512 13.1278 85.2037 13.4464 85.2339 13.7651C85.2522 13.952 85.2625 14.1405 85.2927 14.3258C85.3301 14.5519 85.3802 14.7763 85.4319 14.9992C85.4812 15.21 85.5313 15.4209 85.5965 15.627C85.6831 15.9017 85.7746 16.1757 85.8803 16.444C86.1467 17.123 86.5116 17.7476 86.9601 18.3202C87.3004 18.7547 87.6892 19.1437 88.1249 19.4864C88.5113 19.7907 88.9176 20.0623 89.3589 20.2723C89.7254 20.4456 90.1063 20.5926 90.4903 20.722C90.806 20.8282 91.1352 20.8993 91.4612 20.9704C91.6345 21.0087 91.815 21.0239 91.9931 21.0335C92.4232 21.0559 92.8542 21.0822 93.2843 21.079C93.5459 21.0774 93.8059 21.0199 94.0675 20.9968C94.1033 20.9936 94.1677 21.0319 94.1772 21.0647C94.2886 21.4297 94.3895 21.7987 94.4985 22.1653C94.6623 22.7148 94.8308 23.2627 94.9946 23.8123C95.0407 23.9672 95.0694 24.127 95.121 24.2795C95.156 24.3833 95.1107 24.4121 95.0272 24.4273C94.6432 24.4952 94.2599 24.5631 93.8759 24.6318C93.8719 24.6318 93.8672 24.6325 93.8632 24.6325C93.2311 24.6501 92.599 24.6821 91.9669 24.6789C91.6281 24.6773 91.287 24.6333 90.9523 24.5774C90.3639 24.4792 89.7795 24.3602 89.2054 24.1877C88.2569 23.9025 87.3624 23.5032 86.5227 22.9816C85.6815 22.4592 84.9317 21.825 84.2599 21.0942C83.8146 20.6094 83.4202 20.0878 83.0672 19.5327C82.7142 18.9776 82.4112 18.3969 82.1703 17.7851C82.0042 17.3626 81.8499 16.9337 81.7147 16.5C81.6201 16.1964 81.5589 15.8817 81.4953 15.5694C81.4341 15.2691 81.3816 14.9672 81.3402 14.6637C81.2957 14.3346 81.2496 14.0032 81.2369 13.6717C81.2106 12.964 81.1868 12.2555 81.1987 11.5479C81.2051 11.1621 81.2846 10.7771 81.3355 10.3921C81.3689 10.1429 81.3991 9.89293 81.4516 9.64692C81.5176 9.33542 81.5979 9.02632 81.6853 8.7204C81.7664 8.43526 81.8539 8.15012 81.958 7.87216C82.0876 7.52632 82.2276 7.18366 82.381 6.8474C82.7261 6.09101 83.165 5.38973 83.6739 4.73478C84.2623 3.97839 84.9381 3.30747 85.7006 2.726C86.3931 2.19804 87.1278 1.73878 87.9261 1.39532C88.4119 1.18606 88.9113 1.00715 89.413 0.841012C89.7819 0.718807 90.1628 0.627753 90.5428 0.543887C90.8028 0.486379 91.0708 0.463216 91.3355 0.428871C91.6003 0.393727 91.8651 0.349798 92.1314 0.333823C92.4216 0.316251 92.7135 0.326635 93.0053 0.325037C93.1293 0.325037 93.2541 0.321842 93.3782 0.328232C93.693 0.343408 94.0087 0.351395 94.322 0.384143C94.6718 0.421683 95.0232 0.463216 95.3651 0.540692C95.8637 0.653312 96.3574 0.789893 96.8488 0.934462C97.4523 1.11178 98.0256 1.36577 98.579 1.66609C99.1149 1.95603 99.6213 2.28989 100.1 2.66929C100.528 3.00874 100.925 3.38095 101.29 3.7859C101.829 4.38255 102.289 5.0359 102.672 5.74516C102.948 6.25635 103.172 6.7875 103.364 7.33462C103.388 7.40171 103.372 7.42887 103.313 7.45203C103.108 7.53271 102.904 7.61657 102.699 7.69564C102.309 7.8474 101.918 7.99756 101.526 8.14612C101.06 8.32424 100.591 8.50076 100.125 8.67807C99.9943 8.72759 99.8646 8.77631 99.7255 8.82823L99.7279 8.82424Z" fill="#1A073C"/>
<path d="M97.7505 24.2412C97.5151 23.6957 97.2797 23.1917 97.0826 22.6733C96.9522 22.3299 96.8416 21.9712 96.7868 21.6094C96.7359 21.2772 96.689 20.9401 96.7486 20.5903C96.8083 20.2372 96.8734 19.8898 97.042 19.5783C97.1955 19.2947 97.3863 19.0304 97.5708 18.7644C98.0796 18.028 98.5925 17.2947 99.1045 16.5607C99.5585 15.9105 100.014 15.262 100.467 14.611C100.851 14.0583 101.231 13.5032 101.615 12.9505C101.938 12.4848 102.265 12.0216 102.589 11.5575C102.609 11.5296 102.628 11.5016 102.663 11.4489C102.724 11.5583 102.771 11.6326 102.807 11.7117C103.032 12.2077 103.265 12.6997 103.472 13.2029C103.561 13.4209 103.618 13.6597 103.643 13.8938C103.682 14.2588 103.705 14.6286 103.688 14.9944C103.676 15.2316 103.596 15.4697 103.521 15.6989C103.317 16.3187 102.946 16.845 102.574 17.3706C102.064 18.0903 101.566 18.8187 101.061 19.5415C100.71 20.0447 100.353 20.5431 100.001 21.0463C99.5482 21.6957 99.0982 22.3482 98.6465 22.9992C98.3937 23.3634 98.1401 23.7268 97.8848 24.0895C97.8562 24.1302 97.8188 24.1645 97.7512 24.2404L97.7505 24.2412Z" fill="#1A073C"/>
<path d="M90.4235 11.5383H101.324C101.262 11.6398 101.215 11.7276 101.159 11.8083C100.612 12.5902 100.063 13.3714 99.5147 14.1533C99.3756 14.3522 99.2396 14.5535 99.1029 14.754C99.0432 14.841 98.9701 14.8834 98.858 14.8826C97.2685 14.8794 95.6799 14.8754 94.0905 14.8826C93.1984 14.8858 92.482 14.5192 91.8881 13.8746C91.4253 13.3722 91.0794 12.7907 90.7542 12.1949C90.6604 12.0232 90.569 11.8498 90.4783 11.6757C90.4576 11.6358 90.4449 11.5926 90.4235 11.5391V11.5383Z" fill="#1A073C"/>
<path d="M38.264 30.2717C39.5256 30.2717 40.4718 31.3107 40.4718 32.7764C40.4718 34.2514 39.5256 35.2904 38.264 35.2904C37.5218 35.2904 36.9281 34.9379 36.5571 34.3442V35.1791H35.6479V28.6947H36.5571V31.2087C36.9281 30.6242 37.5218 30.2717 38.264 30.2717ZM38.0413 34.4926C38.9226 34.4926 39.5441 33.7783 39.5441 32.7764C39.5441 31.7746 38.9226 31.0695 38.0413 31.0695C37.1786 31.0695 36.5571 31.7746 36.5571 32.7764C36.5571 33.7783 37.1786 34.4926 38.0413 34.4926Z" fill="#525A6D"/>
<path d="M42.4248 36.8489C42.1002 36.8489 41.7662 36.7747 41.5157 36.6448L41.7198 35.9398C41.9053 36.0418 42.1187 36.0882 42.3042 36.0882C42.6011 36.0882 42.8052 35.9954 42.9629 35.7171L43.2041 35.2069L41.1447 30.3831H42.128L43.6679 34.1679L45.1243 30.3831H46.0798L43.9648 35.6151C43.6215 36.4778 43.1113 36.8396 42.4248 36.8489Z" fill="#525A6D"/>
<path d="M50.7834 33.9274V28.7773H49.4093V35.1695H53.9609V33.9274H50.7834Z" fill="#050A16"/>
<path d="M56.7662 34.0803C56.2033 34.0803 55.7834 33.7267 55.6212 33.2012H59.085C59.085 31.3858 58.1976 30.2392 56.6994 30.2392C55.2967 30.2392 54.228 31.2903 54.228 32.7426C54.228 34.1949 55.3445 35.2746 56.7758 35.2746C57.4819 35.2746 58.3121 34.9784 58.7415 34.5293L57.8731 33.6407C57.6155 33.8892 57.1479 34.0707 56.7662 34.0707V34.0803ZM56.7567 31.4431C57.3006 31.4431 57.6632 31.7489 57.7873 32.2266H55.6403C55.8216 31.7393 56.2414 31.4431 56.7567 31.4431Z" fill="#050A16"/>
<path d="M61.3082 35.1695H62.5582L64.6193 30.3539H63.2071L61.938 33.6025L60.6498 30.3539H59.228L61.3082 35.1695Z" fill="#050A16"/>
<path d="M66.9954 34.0803C66.4324 34.0803 66.0125 33.7267 65.8503 33.2012H69.3141C69.3141 31.3858 68.4267 30.2392 66.9286 30.2392C65.5259 30.2392 64.4572 31.2903 64.4572 32.7426C64.4572 34.1949 65.5736 35.2746 67.0049 35.2746C67.711 35.2746 68.5412 34.9784 68.9706 34.5293L68.1023 33.6407C67.8446 33.8892 67.3771 34.0707 66.9954 34.0707V34.0803ZM66.9858 31.4431C67.5297 31.4431 67.8923 31.7489 68.0164 32.2266H65.8694C66.0507 31.7393 66.4705 31.4431 66.9858 31.4431Z" fill="#050A16"/>
<path d="M69.9249 35.1695H71.2895V28.6627H69.9249V35.1695Z" fill="#050A16"/>
<path d="M79.1617 35.1695H80.7075L78.1025 28.7773H76.5662L73.9612 35.1695H75.4975L75.9078 34.1663H78.7513L79.1617 35.1695ZM76.3849 33.0006L77.3296 30.6596L78.2742 33.0006H76.3753H76.3849Z" fill="#050A16"/>
<path d="M83.4652 35.2842C84.2667 35.2842 84.9156 34.9593 85.3927 34.4338L84.4862 33.6694C84.2381 33.9465 83.8468 34.1376 83.4747 34.1376C82.759 34.1376 82.1674 33.507 82.1674 32.7521C82.1674 31.9973 82.759 31.3954 83.4652 31.3954C83.8373 31.3954 84.219 31.5769 84.4575 31.8444L85.364 31.0705C84.8965 30.5641 84.2572 30.2488 83.4747 30.2488C82.0529 30.2488 80.8411 31.3954 80.8411 32.7617C80.8411 34.128 82.0434 35.2842 83.4652 35.2842Z" fill="#050A16"/>
<path d="M88.2458 35.2842C89.0473 35.2842 89.6962 34.9593 90.1733 34.4338L89.2668 33.6694C89.0187 33.9465 88.6275 34.1376 88.2553 34.1376C87.5397 34.1376 86.9481 33.507 86.9481 32.7521C86.9481 31.9973 87.5397 31.3954 88.2458 31.3954C88.6179 31.3954 88.9996 31.5769 89.2382 31.8444L90.1447 31.0705C89.6771 30.5641 89.0378 30.2488 88.2553 30.2488C86.8336 30.2488 85.6217 31.3954 85.6217 32.7617C85.6217 34.128 86.824 35.2842 88.2458 35.2842Z" fill="#050A16"/>
<path d="M92.9501 34.0803C92.3871 34.0803 91.9672 33.7267 91.805 33.2012H95.2688C95.2688 31.3858 94.3814 30.2392 92.8833 30.2392C91.4806 30.2392 90.4119 31.2903 90.4119 32.7426C90.4119 34.1949 91.5283 35.2746 92.9596 35.2746C93.6657 35.2746 94.4959 34.9784 94.9253 34.5293L94.057 33.6407C93.7993 33.8892 93.3318 34.0707 92.9501 34.0707V34.0803ZM92.9405 31.4431C93.4844 31.4431 93.847 31.7489 93.9711 32.2266H91.8241C92.0054 31.7393 92.4253 31.4431 92.9405 31.4431Z" fill="#050A16"/>
<path d="M97.6925 35.2842C98.8757 35.2842 99.6486 34.6822 99.6486 33.7267C99.6486 32.6757 98.7326 32.3986 97.9024 32.1789C97.2535 31.9973 97.0531 31.9304 97.0531 31.6629C97.0531 31.4909 97.2821 31.3762 97.6161 31.3762C98.0264 31.3762 98.5226 31.5387 98.9616 31.8062L99.5055 30.8412C98.9711 30.4876 98.2936 30.2488 97.6066 30.2488C96.4711 30.2488 95.7172 30.8985 95.7268 31.8158C95.7268 32.7617 96.4997 33.0388 97.4825 33.2777C97.9787 33.4114 98.3318 33.4974 98.3318 33.8032C98.3318 34.0134 98.0741 34.1663 97.7115 34.1663C97.0722 34.1663 96.5283 33.9369 96.0989 33.6216L95.5168 34.558C96.0894 35.0262 96.91 35.2842 97.6829 35.2842H97.6925Z" fill="#050A16"/>
<path d="M102.044 35.2842C103.227 35.2842 104 34.6822 104 33.7267C104 32.6757 103.084 32.3986 102.254 32.1789C101.605 31.9973 101.405 31.9304 101.405 31.6629C101.405 31.4909 101.634 31.3762 101.968 31.3762C102.378 31.3762 102.874 31.5387 103.313 31.8062L103.857 30.8412C103.323 30.4876 102.645 30.2488 101.958 30.2488C100.822 30.2488 100.069 30.8985 100.078 31.8158C100.078 32.7617 100.851 33.0388 101.834 33.2777C102.33 33.4114 102.683 33.4974 102.683 33.8032C102.683 34.0134 102.426 34.1663 102.063 34.1663C101.424 34.1663 100.88 33.9369 100.45 33.6216L99.8683 34.558C100.441 35.0262 101.261 35.2842 102.034 35.2842H102.044Z" fill="#050A16"/>
</g>
<defs>
<clipPath id="clip0_3067_964">
<rect width="104" height="37" fill="white"/>
</clipPath>
</defs>
</svg>
